# xmcd
# 
# Track frame offsets:
#     150
#     16343
#     36023
#     56797
#     78664
#     96122
#     112178
#     127792
#     148224
#     166144
#     192256
#     212074
# 
# Disc length: 3129
# 
# Revision: 4
# Processed by: cddbd v1.5.2PL0 Copyright (c) Steve Scherf et al.
# Submitted via: fre:ac v1.0.31
# 
DISCID=a60c370c
DTITLE=Beth Hart - War In My Mind
DYEAR=2019
DGENRE=Blues
TTITLE0=Bad Woman Blues
TTITLE1=War In My Mind
TTITLE2=Without Words In The Way
TTITLE3=Let It Grow
TTITLE4=Try A Little Harder
TTITLE5=Sister Dear
TTITLE6=Spanish Lullabies
TTITLE7=Rub Me For Luck
TTITLE8=Sugar Shack
TTITLE9=Woman Down
TTITLE10=Thankful
TTITLE11=I Need A Hero
EXTD=
EXTT0=
EXTT1=
EXTT2=
EXTT3=
EXTT4=
EXTT5=
EXTT6=
EXTT7=
EXTT8=
EXTT9=
EXTT10=
EXTT11=
PLAYORDER=
